<svg width="126" height="38" viewBox="0 0 126 38" fill="none" xmlns="http://www.w3.org/2000/svg">
<path d="M17.64 10.0033C18.0542 10.0033 18.39 9.66755 18.39 9.25333C18.39 8.83912 18.0542 8.50333 17.64 8.50333H11.2C7.74753 8.50333 4.93 11.2644 4.93 14.6933V26.9333C4.93 30.3623 7.74754 33.1233 11.2 33.1233H17.64C18.0542 33.1233 18.39 32.7875 18.39 32.3733C18.39 31.9591 18.0542 31.6233 17.64 31.6233H11.2C8.55524 31.6233 6.43 29.5133 6.43 26.9333V14.6933C6.43 12.1134 8.55524 10.0033 11.2 10.0033H17.64ZM3.84 2.75H23.16C23.7724 2.75 24.25 3.23636 24.25 3.81333V34.1867C24.25 34.7636 23.7724 35.25 23.16 35.25H3.84C3.22765 35.25 2.75 34.7636 2.75 34.1867V3.81333C2.75 3.23636 3.22765 2.75 3.84 2.75Z" stroke="white" stroke-width="1.5" stroke-linecap="round" stroke-linejoin="round"/>
<path d="M39.82 28.36C43.36 28.36 45.76 26.68 47.44 24.37L45.34 23.23C44.2 24.91 42.1 26.14 39.82 26.14C35.44 26.14 32.11 22.75 32.11 18.01C32.11 13.21 35.44 9.88 39.82 9.88C42.1 9.88 44.2 11.08 45.34 12.79L47.41 11.62C45.82 9.34 43.36 7.66 39.82 7.66C34.06 7.66 29.53 11.86 29.53 18.01C29.53 24.16 34.06 28.36 39.82 28.36ZM52.7734 28V17.74C53.4334 16.57 55.3234 15.43 56.7334 15.43C57.0634 15.43 57.3334 15.46 57.6034 15.49V13.18C55.6234 13.18 53.9434 14.32 52.7734 15.82V13.51H50.5234V28H52.7734ZM66.9958 28.36C69.3358 28.36 71.2858 27.55 72.7558 26.11L71.6758 24.64C70.5058 25.84 68.8558 26.5 67.1758 26.5C64.0558 26.5 62.1658 24.22 61.9858 21.49H73.6858V20.92C73.6858 16.57 71.1058 13.15 66.7258 13.15C62.5858 13.15 59.5858 16.54 59.5858 20.74C59.5858 25.27 62.6758 28.36 66.9958 28.36ZM71.4658 19.81H61.9558C62.0758 17.62 63.6058 15.01 66.6958 15.01C69.9958 15.01 71.4358 17.68 71.4658 19.81ZM90.0801 28V7.99H87.8301V15.7C86.6601 14.11 84.8901 13.15 82.9401 13.15C79.1601 13.15 76.4901 16.12 76.4901 20.77C76.4901 25.48 79.1601 28.36 82.9401 28.36C84.9801 28.36 86.7501 27.31 87.8301 25.84V28H90.0801ZM83.5101 26.35C80.5701 26.35 78.8301 23.98 78.8301 20.77C78.8301 17.56 80.5701 15.16 83.5101 15.16C85.2801 15.16 87.0501 16.24 87.8301 17.5V24.04C87.0501 25.3 85.2801 26.35 83.5101 26.35ZM95.7259 11.44C96.5659 11.44 97.2259 10.78 97.2259 9.94C97.2259 9.1 96.5659 8.41 95.7259 8.41C94.8859 8.41 94.1959 9.1 94.1959 9.94C94.1959 10.78 94.8859 11.44 95.7259 11.44ZM96.8359 28V13.51H94.5859V28H96.8359ZM104.204 28V15.49H107.144V13.51H104.204V12.4C104.204 10.54 105.014 9.55 106.514 9.55C107.234 9.55 107.804 9.82 108.284 10.24L109.214 8.8C108.314 7.96 107.324 7.69 106.154 7.69C103.604 7.69 101.954 9.43 101.954 12.4V13.51H99.5542V15.49H101.954V28H104.204ZM109.07 33.67C109.46 33.79 110.21 33.88 110.69 33.88C112.61 33.85 114.08 33.04 114.95 30.94L122.21 13.51H119.78L114.95 25.39L110.15 13.51H107.69L113.75 28.15L112.79 30.34C112.28 31.54 111.62 31.87 110.63 31.87C110.27 31.87 109.73 31.78 109.4 31.63L109.07 33.67Z" fill="white"/>
</svg>
